Patient4_TMGait_0pt2_01_right_24_EMG.mot
version=1
nRows=19
nColumns=33
inDegrees=no
endheader
time	1LAddLong	2LGlutMax	3LGlutMed	4LIliopsoas	5LSemiMemb	6LBicFemLong	7LRecFem	8LVastMed	9LVastLat	10LGasMed	11LTibAnt	12lTibPost	13LPeroneusLong	14LSol	15LExtDigLong	16LFlexDigLong	17RAddLong	18RGlutMax	19RGlutMed	20RIliopsoas	21RSemiMemb	22RBicFemLong	23RRecFem	24RVastMed	25RVastLat	26RGasMed	27RTibAnt	28RTibPost	29RPeroneusLong	30RSol	31RExtDigLong	32RFlexDigLong
54.64	-0.008087	-0.056	-0.032196	0.002747	-0.048981	-0.10117	-0.014038	-0.002289	0.005798	0.057678	0.016022	0.026398	0.000153	-0.3363	0.028687	-0.049438	-0.009766	0.011444	-0.020142	-0.085297	-0.058441	-0.16159	0.11765	-0.11765	-0.059662	0.00824	0.044098	-0.004272	-0.22278	0.001526	-0.001984	0.005646
54.641	0.003815	-0.072479	-0.021057	-0.002441	-0.078735	-0.080719	-0.002289	0.004883	-0.001526	0.042877	0.007172	-0.11948	0.020599	0.020447	0.027771	-0.02655	-0.007935	-0.018768	0.14313	-0.057068	-0.05722	-0.31204	0.17532	-0.26093	-0.03479	0.024414	0.05249	0.005035	-0.12375	-0.018921	-0.00473	-0.007477
54.642	0.008087	-0.070648	0.025482	-0.00473	-0.030518	-0.010223	-0.010529	0.00061	-0.005951	0.033112	-0.015564	0.20065	0.01358	0.11475	0.000305	-0.028839	0.018158	-0.066986	0.10376	-0.010681	-0.025635	-0.18387	0.18372	-0.32044	-0.040588	0.022278	0.041656	-0.006561	0.16312	-0.023193	-0.005951	-0.003357
54.643	0.02182	-0.082245	0.032349	0.002747	0.08606	0.036469	-0.007324	-0.001373	-0.004425	0.024719	-0.012817	0.10483	-0.007324	-0.041656	-0.003662	-0.027924	0.016479	-0.005493	0.021515	0.024719	-0.016479	0.11459	0.13046	-0.29205	-0.037079	-0.008698	0.10513	-0.002747	-0.035248	-0.025024	-0.006866	-0.009155
54.644	0.017242	-0.037842	0.008698	0.011902	0.16205	0.050964	-0.016785	-0.001373	-0.003052	0.023651	-0.024109	0.03952	-0.012207	-0.11658	-0.001221	-0.029297	-0.004425	0.001221	-0.002136	0.10452	-0.052185	0.14267	-0.038452	-0.11704	-0.030975	-0.014343	0.11765	-0.003357	-0.46646	-0.044861	-0.003204	-0.007782
54.645	0.009766	-0.035553	0.00824	0.014801	0.09491	0.014648	0.000458	-0.005188	0.003815	0.058594	-0.016479	-0.044403	-0.013733	-0.13962	-0.007477	-0.027161	-0.037079	-0.000305	0.001526	0.069122	-0.11429	0.26093	-0.038757	-0.014954	0.000458	0.004425	0.080872	-0.005341	-0.34546	-0.11017	-0.007782	-0.009766
54.646	0.007782	-0.053253	-0.020294	0.019073	0.036926	0	-0.013123	-0.003204	0.000153	0.070953	-0.01297	-0.026093	-0.00473	-0.22903	-0.004883	-0.027618	-0.013885	-0.024261	0.18097	-0.055389	-0.14587	0.32455	0.049133	0.11459	-0.021973	-0.013123	0.072479	-0.008392	-0.49911	-0.065613	-0.005646	-0.010376
54.647	0.006866	-0.036011	-0.017548	0.023651	-0.026398	0.015717	-0.016479	-0.007019	0.018616	0.070038	-0.005951	-0.005493	-0.065765	-0.013885	-0.015259	-0.02121	0.009766	-0.063477	-0.011139	-0.057983	-0.060577	0.35233	0.061188	0.26154	-0.083008	-0.016785	0.069885	-0.000763	0.13901	-0.042267	-0.000458	-0.004578
54.648	0.008698	-0.019073	0.027161	0.011902	-0.042419	0.013428	-0.000763	0.000458	0.010223	0.043945	0.006104	0.002899	-0.081177	0.17242	-0.00351	-0.01297	0.010376	-0.085907	-0.032501	-0.023346	-0.027466	0.24735	0.071869	0.18463	-0.0383	0.003662	-0.009918	-0.001678	0.14633	-0.17334	-0.004578	0.004425
54.649	0.015869	-0.023804	0.041046	-0.002899	0.024872	0.00885	-0.002899	0.002136	0.006866	0.057678	0.00061	0.003967	-0.066223	0.008392	0.000763	-0.013123	-0.007019	-0.15518	0.24536	-0.007782	-0.00412	0.1297	-0.010071	0.15335	0.007477	0.009613	0.003662	-0.007019	0.5452	-0.17303	-0.002289	-0.003815
54.65	-0.006866	-0.039825	-0.026093	0.000916	0.070343	0.00412	-0.010071	0.002899	0.007172	-0.03006	-0.002289	0.003052	-0.041962	-0.17685	-0.023193	-0.010376	0.017395	-0.23621	0.18005	0.027008	-0.04364	0.044708	0.043488	0.049286	0.01297	0.001831	0.085144	-0.007935	0.58746	-0.019226	0.000305	-0.00412
54.651	-0.020294	-0.041809	-0.014038	0.00473	0.041046	0.007477	-0.007782	-0.000916	0.002899	-0.06012	-0.004272	0.012054	0.056763	-0.30487	0.015411	-0.028229	0.017548	-0.32059	0.41092	0.091858	-0.059967	0.10925	0.052643	-0.017395	0.10696	-0.002136	0.19455	-0.01358	-1.3287	0.034332	0.001373	-0.000153
54.652	-0.005188	-0.032196	0.024109	-0.003357	-0.01358	0.05127	-0.024872	-0.001831	-0.002136	-0.10269	0.001831	0.012512	0.051117	-0.15595	0.042572	-1.4352	0.012512	-0.35248	0.20172	0.11276	-0.087891	0.09552	0.064545	-0.053558	0.18646	-0.011292	0.16663	-0.005951	-0.29739	-0.083313	-0.004578	0.000916
54.653	0.006714	-0.026855	0.008087	0.000305	-0.043335	0.046234	-0.019989	0.001526	0.005188	-0.13977	-0.002899	0.015411	0.090027	0.11154	0.016022	0.65796	-0.005951	-0.38208	0.40527	0.066528	0.040436	-0.051727	-0.008698	-0.018616	0.29526	-0.009613	0.054626	-0.005035	0.49271	-0.11505	-0.002441	0.00412
54.654	0.00351	-0.044861	-0.045013	0.007172	-0.004578	0.068817	-0.021667	0.001068	0.00885	-0.09903	0.003357	0.017853	0.075684	0.25559	-0.025482	0.50125	-0.011597	-0.40863	0.56305	0.013123	0.18173	-0.3186	0.037994	0.002747	0.34256	-0.008392	0.047913	-0.005951	-0.36941	-0.17136	-0.00412	0.008392
54.655	0.010071	-0.016479	-0.038757	-0.006714	0.040588	0.04776	-0.020752	-0.00061	0.01297	-0.070496	0.005493	-0.009308	0.076141	0.24979	-0.025024	-0.2005	0.021667	-0.39627	0.17731	-0.016785	0.13977	-0.51498	0.10239	-0.033722	0.35156	0	-0.18341	-0.002136	-0.64621	-0.1416	-0.001678	0.010376
54.656	0.002441	0.006561	-0.020294	0.005188	0.019989	0.032806	-0.014343	-0.002289	0.003815	0.063934	0.011292	0.003357	-0.050201	0.26733	-0.018005	-0.078888	0.011444	-0.48538	-0.010071	-0.016174	-0.12802	-0.36026	0.011749	0.091858	0.18768	-0.006104	-0.24933	-0.001831	-0.17197	0.067139	-0.00473	0.003204
54.657	0.003815	0.001221	-0.029907	0.000916	-0.006409	0.011139	-0.022125	0.004883	0.003204	0.090027	0.011444	0.023651	-0.097198	0.28351	-0.022888	0.52567	-0.011597	-0.51315	-0.002136	-0.057373	-0.092163	-0.033112	0.02594	0.14404	-0.16007	-0.013123	-0.019989	-0.006256	1.3271	0.1416	-0.004578	-0.015259
54.658	-0.000305	-0.007019	-0.050507	0.009308	0.004272	-0.042267	-0.045624	-0.00351	0.003204	0.014954	0.001678	0.025482	-0.085297	0.2182	-0.007935	-0.11368	-0.023804	-0.54474	0.12955	-0.10498	-0.013428	0.097504	0.10315	0.081787	-0.60089	-0.016479	0.021667	-0.00351	0.73379	0.068512	-0.014038	-0.002441
